<svg width="637" height="638" viewBox="0 0 637 638" fill="none" xmlns="http://www.w3.org/2000/svg">
<path d="M292.25 638L304.5 385.604L220.5 623.978L171.5 604.698L280 375.088L112 564.385L73.5 525.824L262.5 357.56L33.25 466.231L14 417.154L252 333.022L0 345.291V292.709L252 306.731L14 220.846L33.25 173.522L262.5 282.192L73.5 112.176L112 75.3681L280 262.912L171.5 35.0549L220.5 14.022L304.5 254.148L292.25 0H344.75L330.75 252.396L416.5 14.022L463.75 35.0549L355.25 262.912L525 75.3681L561.75 112.176L374.5 282.192L602 173.522L623 220.846L383.25 306.731L637 292.709V345.291L383.25 333.022L623 417.154L602 466.231L374.5 357.56L561.75 525.824L525 564.385L355.25 375.088L463.75 604.698L416.5 623.978L330.75 385.604L344.75 638H292.25Z" fill="#530C74"/>
</svg>
